<svg width="128" height="128" viewBox="0 0 128 128" fill="none" xmlns="http://www.w3.org/2000/svg">
  <rect width="128" height="128" rx="32" fill="transparent"/>
  <g filter="url(#shadow)">
    <rect x="18" y="18" width="92" height="92" rx="28" fill="url(#paint0_linear)"/>
    <path d="M39 46C39 42.6863 41.6863 40 45 40H83C86.3137 40 89 42.6863 89 46C89 49.3137 86.3137 52 83 52H45C41.6863 52 39 49.3137 39 46Z" fill="#F8FAFC"/>
    <path d="M39 64C39 60.6863 41.6863 58 45 58H69C72.3137 58 75 60.6863 75 64C75 67.3137 72.3137 70 69 70H45C41.6863 70 39 67.3137 39 64Z" fill="#E0F2FE"/>
    <path d="M54.3173 78.5714C56.3239 75.2577 60.6061 74.7215 63.3152 77.3922L81.6484 95.4643C84.8424 98.6126 82.6129 104 78.1282 104H56.6196C51.6879 104 48.7766 98.5897 51.4433 94.4204L54.3173 78.5714Z" fill="#DCFCE7"/>
    <circle cx="82" cy="40" r="10" fill="#FCD34D"/>
  </g>
  <defs>
    <filter id="shadow" x="10" y="12" width="108" height="108" filterUnits="userSpaceOnUse" color-interpolation-filters="sRGB">
      <feFlood flood-opacity="0" result="BackgroundImageFix"/>
      <feColorMatrix in="SourceAlpha" type="matrix" values="0 0 0 0 0 0 0 0 0 0 0 0 0 0 0 0 0 0 127 0" result="hardAlpha"/>
      <feOffset dy="2"/>
      <feGaussianBlur stdDeviation="4"/>
      <feComposite in2="hardAlpha" operator="out"/>
      <feColorMatrix type="matrix" values="0 0 0 0 0.0588235 0 0 0 0 0.141176 0 0 0 0 0.317647 0 0 0 0.18 0"/>
      <feBlend mode="normal" in2="BackgroundImageFix" result="effect1_dropShadow"/>
      <feBlend mode="normal" in="SourceGraphic" in2="effect1_dropShadow" result="shape"/>
    </filter>
    <linearGradient id="paint0_linear" x1="32" y1="26" x2="96" y2="102" gradientUnits="userSpaceOnUse">
      <stop stop-color="#0F172A"/>
      <stop offset="1" stop-color="#1D4ED8"/>
    </linearGradient>
  </defs>
</svg>
